<?xml version="1.0" encoding="utf-8"?>
<!-- Generator: Adobe Illustrator 18.1.1, SVG Export Plug-In . SVG Version: 6.00 Build 0)  -->
<svg version="1.1" xmlns="http://www.w3.org/2000/svg" xmlns:xlink="http://www.w3.org/1999/xlink" x="0px" y="0px"
	 viewBox="-264 356 82 81" enable-background="new -264 356 82 81" xml:space="preserve">
<g id="Layer_1" display="none">
	<path display="inline" fill="#FFCC00" d="M-186.2,355.7c0,0-9.9,5.5-19.2,6.2c-68.8,5.7-53.4,58-52.6,58.4c0,0,5.4-6.1,11.1-8.3
		c36.1-14,48-37.9,48-37.9s-15,28.7-46.9,40.5c-7.1,2.6-13.8,11.9-18.3,21.7c0,0,4.7-0.6,6.6-0.5c1.9-4.4,4.6-8.4,8.1-11.6
		c36.3,14.5,56.7-12.3,61.1-22.3C-177.8,378.2-186.2,355.7-186.2,355.7z"/>
</g>
<g id="Layer_2" display="none">
	<path display="inline" fill="#039A49" d="M-186.2,355.7c0,0-9.9,5.5-19.2,6.2c-68.8,5.7-53.4,58-52.6,58.4c0,0,5.4-6.1,11.1-8.3
		c36.1-14,48-37.9,48-37.9s-15,28.7-46.9,40.5c-7.1,2.6-13.8,11.9-18.3,21.7c0,0,4.7-0.6,6.6-0.5c1.9-4.4,4.6-8.4,8.1-11.6
		c36.3,14.5,56.7-12.3,61.1-22.3C-177.8,378.2-186.2,355.7-186.2,355.7z"/>
</g>
<g id="Layer_4" display="none">
	<path display="inline" fill="#CA2027" d="M-186.2,355.7c0,0-9.9,5.5-19.2,6.2c-68.8,5.7-53.4,58-52.6,58.4c0,0,5.4-6.1,11.1-8.3
		c36.1-14,48-37.9,48-37.9s-15,28.7-46.9,40.5c-7.1,2.6-13.8,11.9-18.3,21.7c0,0,4.7-0.6,6.6-0.5c1.9-4.4,4.6-8.4,8.1-11.6
		c36.3,14.5,56.7-12.3,61.1-22.3C-177.8,378.2-186.2,355.7-186.2,355.7z"/>
</g>
<g id="Layer_6">
	<path fill="#CA2027" d="M-188.2,391.2c-4.4-10-24.7-36.8-61.1-22.3c-3.5-3.2-6.2-7.2-8.1-11.6c-1.9,0-6.6-0.5-6.6-0.5
		c4.5,9.9,11.2,19.1,18.3,21.7c31.9,11.8,46.9,40.5,46.9,40.5s-12-24-48-37.9c-5.7-2.2-11.1-8.3-11.1-8.3
		c-0.8,0.4-16.2,52.7,52.6,58.4c9.3,0.8,19.2,6.2,19.2,6.2S-177.8,414.9-188.2,391.2z"/>
</g>
<g id="Layer_5" display="none">
	<path display="inline" fill="#039A49" d="M-188.2,391.2c-4.4-10-24.7-36.8-61.1-22.3c-3.5-3.2-6.2-7.2-8.1-11.6
		c-1.9,0-6.6-0.5-6.6-0.5c4.5,9.9,11.2,19.1,18.3,21.7c31.9,11.8,46.9,40.5,46.9,40.5s-12-24-48-37.9c-5.7-2.2-11.1-8.3-11.1-8.3
		c-0.8,0.4-16.2,52.7,52.6,58.4c9.3,0.8,19.2,6.2,19.2,6.2S-177.8,414.9-188.2,391.2z"/>
</g>
<g id="Layer_3" display="none">
	<path display="inline" fill="#FFCC00" d="M-188.2,391.2c-4.4-10-24.7-36.8-61.1-22.3c-3.5-3.2-6.2-7.2-8.1-11.6
		c-1.9,0-6.6-0.5-6.6-0.5c4.5,9.9,11.2,19.1,18.3,21.7c31.9,11.8,46.9,40.5,46.9,40.5s-12-24-48-37.9c-5.7-2.2-11.1-8.3-11.1-8.3
		c-0.8,0.4-16.2,52.7,52.6,58.4c9.3,0.8,19.2,6.2,19.2,6.2S-177.8,414.9-188.2,391.2z"/>
</g>
</svg>
